<?xml version="1.0" encoding="utf-8"?>
<!-- Generator: Adobe Illustrator 23.1.0, SVG Export Plug-In . SVG Version: 6.00 Build 0)  -->
<svg version="1.1" id="Layer_1" xmlns="http://www.w3.org/2000/svg" xmlns:xlink="http://www.w3.org/1999/xlink" x="0px" y="0px"
	 viewBox="0 0 5 5" style="enable-background:new 0 0 5 5;" xml:space="preserve">
<style type="text/css">
	.st0{fill:#FFFFFF;stroke:#000000;stroke-width:0.01;stroke-miterlimit:10;}
</style>
<path class="st0" d="M2.67,1.68c-0.39-0.26-0.8-0.32-0.97-0.15c-0.23,0.22-0.03,0.81,0,0.9c0.11,0.32,0.26,0.4,0.21,0.55
	C1.83,3.25,1.36,3.23,1.33,3.45c-0.02,0.16,0.19,0.32,0.3,0.4C1.88,4.04,2.16,4.06,2.3,4.07c0.15,0.01,0.48,0.03,0.73-0.13
	C3.39,3.7,3.53,3.1,3.35,2.48L3.6,1.72L3.3,1.75L2.98,2.09L2.59,2.32H2.25l0.41-1.02L2.67,1.68z"/>
</svg>
